<!-- Generator: Adobe Illustrator 21.0.0, SVG Export Plug-In  -->
<svg version="1.1"
	 xmlns="http://www.w3.org/2000/svg" xmlns:xlink="http://www.w3.org/1999/xlink" xmlns:a="http://ns.adobe.com/AdobeSVGViewerExtensions/3.0/"
	 x="0px" y="0px" width="49px" height="49px" viewBox="0 0 49 49" style="enable-background:new 0 0 49 49;" xml:space="preserve">
<style type="text/css">
	.st1{fill:#5d5d5d;}
</style>
<g transform="translate(0,-952.36218)">
	<path class="st1" d="M6.8,956.4h36.3c2.1,0,3.8,1.7,3.8,3.8v2.8H3v-2.8C3,958.1,4.7,956.4,6.8,956.4z M13.4,958
		c-0.9,0-1.6,0.7-1.6,1.6s0.7,1.7,1.6,1.7c0.9,0,1.7-0.7,1.7-1.7S14.4,958,13.4,958z M36.5,958c-0.9,0-1.6,0.7-1.6,1.6
		s0.7,1.7,1.6,1.7c0.9,0,1.7-0.7,1.7-1.7S37.5,958,36.5,958z M3,964.1h44v28.1c0,2.1-1.7,3.8-3.8,3.8H6.8c-2.1,0-3.8-1.7-3.8-3.8
		V964.1z M6.8,968.5v1.1h6v4.4h-6v1.1h6v4.4h-6v1.1h6v4.4h-6v1.1h6v4.4h-6v1.1h27.5v-1.1h-4.9v-4.4h13.8V985h-6.1v-4.4h6.1v-1.1
		h-6.1v-4.4h6.1V974h-6.1v-4.4h6.1v-1.1H6.8z M14,969.6h6.6v4.4H14V969.6z M21.7,969.6h6.6v4.4h-6.6V969.6z M29.4,969.6H36v4.4h-6.6
		V969.6z M14,975.1h6.6v4.4H14V975.1z M21.7,975.1h6.6v4.4h-6.6V975.1z M29.4,975.1H36v4.4h-6.6V975.1z M14,980.6h6.6v4.4H14V980.6z
		 M21.7,980.6h6.6v4.4h-6.6V980.6z M29.4,980.6H36v4.4h-6.6V980.6z M14,986.1h6.6v4.4H14V986.1z M21.7,986.1h6.6v4.4h-6.6V986.1z"/>
</g>
</svg>

