<svg height="50" viewBox="0 0 50 50" width="50" xmlns="http://www.w3.org/2000/svg"><style type="text/css">.st0{fill:#FFF;}</style><path class="st0" d="m25 50c13.8071194 0 25-11.1928806 25-25s-11.1928806-25-25-25-25 11.1928806-25 25 11.1928806 25 25 25zm0-3c12.1502651 0 22-9.8497349 22-22s-9.8497349-22-22-22-22 9.8497349-22 22 9.8497349 22 22 22zm1.8145197-11v-11.001288h3.2542252l.4312551-3.7911048h-3.6854803l.0055289-1.8974845c0-.9887785.1006723-1.5185886 1.6225052-1.5185886h2.0344091v-3.7915341h-3.254686c-3.9094012 0-5.2854091 1.8390937-5.2854091 4.9318709v2.2761657h-2.4368678v3.7911047h2.4368678v11.0008587zm0 0" fill-rule="evenodd"/></svg>