<!-- Generator: Adobe Illustrator 21.0.0, SVG Export Plug-In  -->
<svg version="1.1"
	 xmlns="http://www.w3.org/2000/svg" xmlns:xlink="http://www.w3.org/1999/xlink" xmlns:a="http://ns.adobe.com/AdobeSVGViewerExtensions/3.0/"
	 x="0px" y="0px" width="49px" height="49px" viewBox="0 0 49 49" style="enable-background:new 0 0 49 49;" xml:space="preserve">
<style type="text/css">
	.st1{fill:#5d5d5d;}
</style>
<path class="st1" d="M38.9,12.2V5.3h3.5c0.9,0,1.7-0.7,1.7-1.7V3.4c0-0.9-0.7-1.7-1.7-1.7h-3.5H10.1H6.7C5.7,1.7,5,2.5,5,3.4v0.3
	c0,0.9,0.7,1.7,1.7,1.7h3.5v6.8c0,4.8,2.4,9,6,11.6c0.6,0.4,0.6,1.3,0,1.7c-3.6,2.6-6,6.8-6,11.6v6.8H6.7c-0.9,0-1.7,0.7-1.7,1.7
	v0.3c0,0.9,0.7,1.7,1.7,1.7h3.5h28.7h3.5c0.9,0,1.7-0.7,1.7-1.7v-0.3c0-0.9-0.7-1.7-1.7-1.7h-3.5V37c0-4.8-2.4-9-6-11.6
	c-0.6-0.4-0.6-1.3,0-1.7C36.5,21.2,38.9,16.9,38.9,12.2z M34.8,33.9c0.1,0.5-0.4,0.8-0.8,0.6c-2.2-1.6-5.6-2.6-9.5-2.6
	s-7.3,1-9.5,2.6c-0.4,0.3-0.9-0.1-0.8-0.6c1.3-4.3,5.4-7.5,10.2-7.5h0.3C29.4,26.4,33.5,29.6,34.8,33.9z M24.6,22.8h-0.3
	c-5.9,0-10.6-4.8-10.6-10.6V5.3h21.6v6.8C35.3,18,30.5,22.8,24.6,22.8z"/>
</svg>

