<svg height="50" viewBox="0 0 50 50" width="50" xmlns="http://www.w3.org/2000/svg"><style type="text/css">.st0{fill:#FFF;}</style><path class="st0" d="m25 0c-13.8071194 0-25 11.1928806-25 25s11.1928806 25 25 25 25-11.1928806 25-25-11.1928806-25-25-25zm0 3c-12.1502651 0-22 9.8497349-22 22s9.8497349 22 22 22 22-9.8497349 22-22-9.8497349-22-22-22zm10.9513128 31.5096659c.0188467-.1021274.0326676-.2058966.0486872-.3083524v-18.402627c-.0153914-.1008139-.0285841-.2019561-.0474307-.3024415-.1925499-1.0307967-1.0057825-1.8307396-2.0043405-1.9735865-.0414626-.0055825-.0819829-.0151057-.1228172-.0226585h-17.6508232c-.1064835.0200314-.2135952.0351371-.3185082.0600942-.9746855.2321674-1.6958837 1.0527984-1.8347207 2.085237-.005654.0430183-.014135.0857082-.0213595.1287265v18.4528698c.0201031.1169046.0361227.2347944.0612516.3510422.2154799.9963164 1.0290267 1.7686751 1.9968018 1.8987151.0468025.0059109.0939191.015434.1407216.0233152h17.60245c.1143363-.0203598.2289867-.0371074.3420666-.0627213.8983566-.199329 1.6324334-.9828527 1.8080212-1.9276128zm-19.5709818-1.4107367c0 .4896202.4055169.9106082.873856.9106082 5.1627236.0003284 10.3251331.0003284 15.4878567 0 .4727366 0 .8760548-.4203312.8760548-.9135637.0003141-3.3997573 0-6.7991862 0-10.198615v-.0706026h-2.1001442c.2965205.9907339.3876126 1.9985437.2713916 3.0257282-.1168491 1.0275128-.4334727 1.9837664-.9492425 2.8667904-.5160839.8840091-1.1851397 1.616305-2.0043405 2.1991862-2.1233884 1.5118789-4.9189737 1.6448743-7.1720898.3228012-1.1389654-.6676042-2.0332386-1.5985722-2.6567484-2.7981582-.9300818-1.7900199-1.0786562-3.6687036-.5330459-5.6179897-.6966975.0006568-1.3905681.0006568-2.093862.0006568v.0620645c0 3.4036979-.0003141 6.8073958.0003142 10.2110937zm8.517426-3.4408053c2.4908979.0558253 4.505604-2.0248144 4.5580605-4.5553398.0537129-2.6096659-1.9597367-4.765177-4.4556604-4.7635351-2.440012-.0016419-4.4236212 2.0507567-4.4578592 4.5901485-.0351804 2.6076956 1.9616213 4.6748715 4.3554591 4.7287264zm8.7200274-11.1765419c.0003141-.7260566.0003141-1.4524415 0-2.178498 0-.5208167-.394209-.9352371-.8917603-.9355654-.6926141-.0003284-1.3852283-.0006568-2.0781565 0-.4962949.0006567-.8917603.4160622-.8920744.9368789-.0003141.7198172-.0021988 1.4396345.0025129 2.1597801.0006282.1073815.0201031.219032.0527706.320831.1243878.3832238.4601722.6183466.8713431.6203169.3342138.0006568.6684276-.0003284 1.0029555-.0003284.3618555-.0042689.7249675.0029555 1.0871372-.0062392.4658261-.0121502.8452719-.429526.8452719-.9171759zm0 0" fill-rule="evenodd"/></svg>