<?xml version="1.0" encoding="utf-8"?>
<!-- Generator: Adobe Illustrator 21.0.0, SVG Export Plug-In . SVG Version: 6.00 Build 0)  -->
<svg version="1.1" id="Layer_1" xmlns="http://www.w3.org/2000/svg" xmlns:xlink="http://www.w3.org/1999/xlink" x="0px" y="0px"
	 viewBox="0 0 50 50" style="enable-background:new 0 0 50 50;" xml:space="preserve">
<style type="text/css">
	.st0{fill:#FFFFFF;}
</style>
<path class="st0" d="M25,0C11.2,0,0,11.2,0,25s11.2,25,25,25s25-11.2,25-25S38.8,0,25,0z M25,47C12.8,47,3,37.2,3,25S12.8,3,25,3
	s22,9.8,22,22S37.2,47,25,47z"/>
<g>
	<g>
		<path class="st0" d="M36.5,17.7l-11.1,8.6c-0.1,0.1-0.3,0.1-0.4,0.1c-0.1,0-0.3,0-0.4-0.1l-11.1-8.6c-0.2,0.3-0.3,0.7-0.3,1.1
			v11.1c0,1.1,0.9,2.1,2.1,2.1h19.5c1.1,0,2.1-0.9,2.1-2.1V18.8C36.8,18.4,36.7,18,36.5,17.7z"/>
	</g>
</g>
<g>
	<g>
		<path class="st0" d="M34.8,16.7H15.2c-0.2,0-0.4,0-0.6,0.1l10.4,8l10.4-8C35.2,16.8,35,16.7,34.8,16.7z"/>
	</g>
</g>
</svg>
