<?xml version="1.0" encoding="utf-8"?>
<!-- Generator: Adobe Illustrator 21.0.0, SVG Export Plug-In . SVG Version: 6.00 Build 0)  -->
<svg version="1.1" id="Layer_1" xmlns="http://www.w3.org/2000/svg" xmlns:xlink="http://www.w3.org/1999/xlink" x="0px" y="0px"
	 viewBox="0 0 189 189" style="enable-background:new 0 0 189 189;" xml:space="preserve">
<style type="text/css">
	.st0{fill:#0A8901;}
	.st1{fill:#FFFFFF;}
	.st2{fill:#F6CB00;}
</style>
<circle class="st0" cx="94.5" cy="94.5" r="94.5"/>
<path class="st1" d="M96,152.5c7,0,12.8-5.1,13.7-11.9H82.3C83.2,147.4,89,152.5,96,152.5z"/>
<path class="st1" d="M138.1,122.2c-0.5-0.4-1.1-0.8-1.6-1.3H55.4c-0.5,0.5-1.1,0.9-1.6,1.3c-2,1.3-3.3,3.6-3.3,6.1
	c0,4.1,3.3,7.2,7.2,7.2h37.8h0.7H134c4.1,0,7.2-3.3,7.2-7.2C141.3,125.7,140.1,123.5,138.1,122.2L138.1,122.2z"/>
<circle class="st2" cx="129.6" cy="79.4" r="20.4"/>
<path class="st1" d="M63.7,86.9c0,14.5-2,23.3-4.6,28.7h73.8c-1.3-2.6-2.4-6.1-3.2-10.5h-0.1c-14.2,0-25.7-11.5-25.7-25.7
	c0-8.6,4.2-16.1,10.5-20.7c-2.4-1.6-4.7-2.6-7-3.6c0.3-0.9,0.3-1.8,0.3-2.6c0-6.6-5.3-11.9-11.9-11.9s-11.9,5.3-11.9,11.9
	c0,0.9,0.1,1.8,0.3,2.6C75.1,58.7,63.7,67.1,63.7,86.9L63.7,86.9z M96,45.7c3.7,0,6.6,2.9,6.6,6.6c0,0.4,0,0.8-0.1,1.1
	c-5.7-1.4-10.7-0.5-13,0c0-0.4-0.1-0.7-0.1-1.1C89.4,48.6,92.3,45.7,96,45.7z M73.6,80.9C75,70.5,85,64.7,85.4,64.5
	c1.3-0.7,2.9-0.3,3.6,0.9c0.7,1.3,0.3,2.9-0.9,3.6c-0.1,0.1-8.2,4.9-9.2,12.5c-0.1,1.3-1.3,2.2-2.6,2.2c-0.1,0-0.3,0-0.4,0
	C74.4,83.7,73.4,82.4,73.6,80.9z"/>
</svg>
