<?xml version="1.0" encoding="utf-8"?>
<!-- Generator: Adobe Illustrator 21.0.0, SVG Export Plug-In . SVG Version: 6.00 Build 0)  -->
<svg version="1.1" id="Layer_1" xmlns="http://www.w3.org/2000/svg" xmlns:xlink="http://www.w3.org/1999/xlink" x="0px" y="0px"
	 viewBox="0 0 189 189" style="enable-background:new 0 0 189 189;" xml:space="preserve">
<style type="text/css">
	.st0{fill:#0A8901;}
	.st1{fill:#F6CB00;}
	.st2{fill:#FFFFFF;}
</style>
<circle class="st0" cx="94.5" cy="94.5" r="94.5"/>
<path class="st1" d="M145.5,70.6H112c-2.1,0-3.7,1.7-3.7,3.7v68.9c0,2.1,1.7,3.7,3.7,3.7h33.5c2.1,0,3.7-1.7,3.7-3.7V74.4
	C149.2,72.3,147.5,70.6,145.5,70.6z M134.3,75.3c1,0,1.9,0.8,1.9,1.9c0,1-0.8,1.9-1.9,1.9s-1.9-0.8-1.9-1.9S133.3,75.3,134.3,75.3z
	 M122.2,76.2h5.6c0.5,0,0.9,0.4,0.9,0.9s-0.4,0.9-0.9,0.9h-5.6c-0.5,0-0.9-0.4-0.9-0.9S121.7,76.2,122.2,76.2z M128.7,142.3
	c-1.5,0-2.8-1.3-2.8-2.8s1.3-2.8,2.8-2.8s2.8,1.3,2.8,2.8C131.5,141.1,130.2,142.3,128.7,142.3z M113.8,132.1V83.7h29.8v48.4H113.8z
	"/>
<path class="st2" d="M44.9,57.6H138v9.3h5.6V55.7c0-2.1-1.7-3.7-3.7-3.7H43c-2.1,0-3.7,1.7-3.7,3.7v68.9c0,2.1,1.7,3.7,3.7,3.7h36.3
	c0,4.1-3.3,7.5-7.5,7.5v5.6h32.6v-29.8H44.9V57.6z M94.2,117.2c1.5,0,2.8,1.3,2.8,2.8s-1.3,2.8-2.8,2.8s-2.8-1.3-2.8-2.8
	S92.7,117.2,94.2,117.2z"/>
</svg>
