<!-- Generator: Adobe Illustrator 21.0.0, SVG Export Plug-In  -->
<svg version="1.1"
	 xmlns="http://www.w3.org/2000/svg" xmlns:xlink="http://www.w3.org/1999/xlink" xmlns:a="http://ns.adobe.com/AdobeSVGViewerExtensions/3.0/"
	 x="0px" y="0px" width="49px" height="49px" viewBox="0 0 49 49" style="enable-background:new 0 0 49 49;" xml:space="preserve">
<style type="text/css">
	.st1{fill:#5d5d5d;}
</style>
<g>
	<path class="st1" d="M34.3,3.8c0-1-0.8-1.9-1.9-1.9c0,0,0,0,0,0l0,0c-1,0-1.9,0.8-1.9,1.8c0,0,0,0,0,0.1v4.3h3.8V3.8z"/>
	<path class="st1" d="M40.3,10c0-1.9-1.5-3.4-3.4-3.4H36V9c0,0.4-0.3,0.8-0.8,0.8c0,0,0,0,0,0h-5.5c-0.4,0-0.8-0.3-0.8-0.8
		c0,0,0,0,0,0V6.6H14.5V9c0,0.5-0.4,0.8-0.9,0.8H8.1C7.6,9.8,7.2,9.5,7.2,9c0,0,0,0,0,0V6.6H6.4C4.5,6.6,3,8.1,3,10v3.6h37.3V10z"/>
	<path class="st1" d="M12.8,3.8c0-1.1-0.9-1.9-2-1.9l0,0c-1.1,0-1.9,0.8-1.9,1.9v4.3h3.9V3.8z"/>
	<path class="st1" d="M34.3,20.2c2.1,0,4.1,0.5,6,1.3v-6.2H3v23.1c0,1.9,1.5,3.5,3.4,3.5H22c-1.3-2.2-2-4.8-2-7.4
		C20,26.6,26.4,20.2,34.3,20.2z"/>
	<path class="st1" d="M34.2,21.9c-6.9,0-12.6,5.6-12.6,12.6c0,6.9,5.6,12.6,12.6,12.6c6.9,0,12.6-5.6,12.6-12.6
		C46.8,27.5,41.2,21.9,34.2,21.9z M39.2,36.4h-5.6c-0.5,0-0.9-0.4-0.9-0.9v-7.4c0-0.5,0.4-0.8,0.8-0.8s0.8,0.4,0.8,0.8v6.6h4.8
		c0.5,0,0.8,0.4,0.8,0.8S39.7,36.4,39.2,36.4z"/>
</g>
</svg>
