<?xml version="1.0" encoding="utf-8"?>
<!-- Generator: Adobe Illustrator 21.0.0, SVG Export Plug-In . SVG Version: 6.00 Build 0)  -->
<svg version="1.1" id="Layer_1" xmlns="http://www.w3.org/2000/svg" xmlns:xlink="http://www.w3.org/1999/xlink" x="0px" y="0px"
	 viewBox="0 0 189 189" style="enable-background:new 0 0 189 189;" xml:space="preserve">
<style type="text/css">
	.st0{fill:#0A8901;}
	.st1{fill:#FFFFFF;}
	.st2{fill:#F6CB00;}
</style>
<circle class="st0" cx="94.5" cy="94.5" r="94.5"/>
<path class="st1" d="M43.6,60.8v30.5c0,27.6,16.4,52.6,41.7,63.6l8.6,3.7l9.5-4c25.8-10.7,42.6-36,42.6-63.9v-30L94.1,33L43.6,60.8z
	 M133.2,68.4v22.2c0,22.9-13.7,43.5-34.8,52.3l-4.5,1.9l-3.6-1.6c-20.7-9-34.1-29.4-34.1-51.9v-23l37.9-20.9L133.2,68.4z"/>
<path class="st2" d="M122.9,84.8l-8.7-9.2l-25.8,24.7L75.5,87.5l-8.9,8.9L88.1,118L122.9,84.8z"/>
</svg>
