<?xml version="1.0" encoding="utf-8"?>
<!-- Generator: Adobe Illustrator 21.0.0, SVG Export Plug-In . SVG Version: 6.00 Build 0)  -->
<svg version="1.1" id="Layer_1" xmlns="http://www.w3.org/2000/svg" xmlns:xlink="http://www.w3.org/1999/xlink" x="0px" y="0px"
	 viewBox="0 0 189 189" style="enable-background:new 0 0 189 189;" xml:space="preserve">
<style type="text/css">
	.st0{fill:#0A8901;}
	.st1{fill:#FFFFFF;}
	.st2{fill:#F6CB00;}
</style>
<circle class="st0" cx="94.5" cy="94.5" r="94.5"/>
<path class="st1" d="M144.7,88.4c-0.5-7.7-7.6-10.7-11.4-11.3c-0.2,0-0.3,0-0.5,0L112.3,77c0.3-1.3,1.1-3.1,3.2-5.4
	c7.3-8.1,4.8-20,4.7-20.4c0-0.1,0-0.2-0.1-0.3c-1.2-3.8-3.4-6.7-6.6-8.2c-5.6-2.9-12-0.7-12.6-0.5c-1.6,0.5-2.7,2-2.9,3.8
	c-0.5,6.4-1.8,13.1-2.7,14.7c-2.2,2.5-6.5,6.5-10.5,9.4c-3.8,2.7-4.9,7.5-6,11.7c-0.6,2.2-1,4.3-1.8,5.7c-1.3,2.4-4.3,2.6-4.5,2.7
	c-2.3,0.1-4.1,1.9-4.2,4.3l-0.4,38.7c0,1.4,0.4,2.7,1.6,3.6c1.1,0.8,2.3,1.1,3.6,0.8c0.5,0,3.2-0.1,8.2,1.7
	c3.6,1.3,11.3,1.8,19.4,1.9c11.6,0.1,24.4-0.7,28.3-1.5c4.5-0.8,7.6-3.4,8.5-6.9c0.6-2.1,0.1-4-0.9-5.9c0.2-0.1,0.4-0.2,0.7-0.3
	c1.7-1,3.1-2.6,3.6-4.6c0.7-2.8-0.1-6.1-1.1-8.5c1-0.8,2.2-1.7,3.1-3.1c2.6-3.8,2-9-1.3-12.6c-0.1-0.1-0.1-0.3,0-0.4
	C145,94.3,144.8,89.6,144.7,88.4L144.7,88.4z M136,89.4v0.2c0.1-0.2,0.1,0.5,0,0.9c-1.9,1.5-3,3.8-3.1,6.2c-0.2,2.5,0.6,5,2.3,6.9
	c0.5,0.5,0.9,1.4,0.5,1.9c-0.3,0.5-1.1,1-1.8,1.5c-0.9,0.6-2,1.3-2.7,2.4c-1.4,1.9-1.4,4.6,0.1,6.6c0.5,0.8,1.1,2.4,1.2,3.4
	c0,0-0.1,0-0.1,0.1c-2.6,1.3-5.7,2.8-6,6.3c-0.1,1.3,0.1,3.4,2.2,5.2c-0.3,0.1-0.7,0.2-1.1,0.3c-6.7,1.3-37,2.1-43,0
	c-3.1-1.1-5.6-1.7-7.7-2L77,98.2c2.7-1,5.8-2.9,7.7-6.4c1.3-2.4,2-5.2,2.7-7.8s1.5-5.9,2.5-6.7c4.6-3.3,9.3-7.8,11.9-10.7
	s3.9-10.5,4.6-16.4c1.1-0.1,2.3,0,3.1,0.6c0.6,0.3,1.5,1,2,2.8c0.2,1.1,1.2,8.3-2.7,12.6c-6.9,7.6-6.1,14.6-4.5,17.6
	c0.8,1.4,2.2,2.3,3.8,2.3"/>
<path class="st2" d="M61.1,91.8L47,91.7l-0.3,44.6l12.7,0.1c4.2,0,4.3-3.1,4.3-3.1l0.3,0.1c0,0,0.3-33.4,0.3-37.6
	C64.3,91.4,61.1,91.8,61.1,91.8z"/>
</svg>
